<mxfile host="app.diagrams.net" modified="2022-07-27T13:48:52.256Z" agent="5.0 (Windows NT 10.0; Win64; x64) AppleWebKit/537.36 (KHTML, like Gecko) Chrome/103.0.0.0 Safari/537.36" etag="WFRAcTqcNKz7cLZ76eCw" version="20.2.1" type="github">
  <diagram id="oJXaEs5t6bWn9vuWpQrZ" name="Page-1">
    <mxGraphModel dx="2738" dy="1717" grid="1" gridSize="10" guides="1" tooltips="1" connect="1" arrows="1" fold="1" page="1" pageScale="1" pageWidth="850" pageHeight="1100" math="0" shadow="0">
      <root>
        <mxCell id="0" />
        <mxCell id="1" parent="0" />
        <mxCell id="sMOfnV0AaLNDbWKCPL8H-1" value="" style="rounded=1;whiteSpace=wrap;html=1;fillColor=#ffe6cc;strokeColor=#d79b00;fontStyle=1;fontSize=12;" parent="1" vertex="1">
          <mxGeometry x="-1670" y="130" width="900" height="320" as="geometry" />
        </mxCell>
        <mxCell id="sMOfnV0AaLNDbWKCPL8H-2" style="edgeStyle=orthogonalEdgeStyle;rounded=0;orthogonalLoop=1;jettySize=auto;html=1;exitX=0.5;exitY=0;exitDx=0;exitDy=0;exitPerimeter=0;entryX=0;entryY=0.5;entryDx=0;entryDy=0;endArrow=classic;endFill=1;fontStyle=1;fontSize=12;" parent="1" source="sMOfnV0AaLNDbWKCPL8H-4" target="sMOfnV0AaLNDbWKCPL8H-6" edge="1">
          <mxGeometry relative="1" as="geometry" />
        </mxCell>
        <mxCell id="sMOfnV0AaLNDbWKCPL8H-3" style="edgeStyle=orthogonalEdgeStyle;rounded=0;orthogonalLoop=1;jettySize=auto;html=1;exitX=1;exitY=0.5;exitDx=0;exitDy=0;exitPerimeter=0;endArrow=classic;endFill=1;fontStyle=1;fontSize=12;" parent="1" source="sMOfnV0AaLNDbWKCPL8H-4" target="sMOfnV0AaLNDbWKCPL8H-10" edge="1">
          <mxGeometry relative="1" as="geometry" />
        </mxCell>
        <mxCell id="sMOfnV0AaLNDbWKCPL8H-51" style="edgeStyle=orthogonalEdgeStyle;rounded=0;orthogonalLoop=1;jettySize=auto;html=1;exitX=0.5;exitY=0.88;exitDx=0;exitDy=0;exitPerimeter=0;entryX=0.5;entryY=0;entryDx=0;entryDy=0;entryPerimeter=0;fontSize=12;fontStyle=1" parent="1" source="sMOfnV0AaLNDbWKCPL8H-4" target="sMOfnV0AaLNDbWKCPL8H-50" edge="1">
          <mxGeometry relative="1" as="geometry" />
        </mxCell>
        <mxCell id="sMOfnV0AaLNDbWKCPL8H-54" style="edgeStyle=orthogonalEdgeStyle;rounded=0;orthogonalLoop=1;jettySize=auto;html=1;exitX=0.5;exitY=0;exitDx=0;exitDy=0;exitPerimeter=0;fontSize=12;entryX=0.5;entryY=0.88;entryDx=0;entryDy=0;entryPerimeter=0;fontStyle=1" parent="1" source="sMOfnV0AaLNDbWKCPL8H-4" target="sMOfnV0AaLNDbWKCPL8H-53" edge="1">
          <mxGeometry relative="1" as="geometry" />
        </mxCell>
        <mxCell id="sMOfnV0AaLNDbWKCPL8H-4" value="Paragraphs with&lt;br style=&quot;font-size: 12px;&quot;&gt;Topics" style="strokeWidth=2;html=1;shape=mxgraph.flowchart.multi-document;whiteSpace=wrap;fontStyle=1;fontSize=12;" parent="1" vertex="1">
          <mxGeometry x="-1660" y="250" width="88" height="60" as="geometry" />
        </mxCell>
        <mxCell id="sMOfnV0AaLNDbWKCPL8H-28" style="edgeStyle=orthogonalEdgeStyle;rounded=0;orthogonalLoop=1;jettySize=auto;html=1;exitX=1;exitY=0.5;exitDx=0;exitDy=0;entryX=0;entryY=0.5;entryDx=0;entryDy=0;fontSize=25;fontStyle=1" parent="1" source="sMOfnV0AaLNDbWKCPL8H-6" target="sMOfnV0AaLNDbWKCPL8H-26" edge="1">
          <mxGeometry relative="1" as="geometry" />
        </mxCell>
        <mxCell id="sMOfnV0AaLNDbWKCPL8H-6" value="&lt;span style=&quot;font-size: 12px;&quot;&gt;Vadersentiment&lt;/span&gt;&lt;br style=&quot;font-size: 12px;&quot;&gt;&lt;span style=&quot;font-size: 12px;&quot;&gt;Algorithm&lt;/span&gt;" style="shape=process;whiteSpace=wrap;html=1;backgroundOutline=1;fontStyle=1;fontSize=12;" parent="1" vertex="1">
          <mxGeometry x="-1520" y="140" width="120" height="60" as="geometry" />
        </mxCell>
        <mxCell id="sMOfnV0AaLNDbWKCPL8H-7" style="edgeStyle=orthogonalEdgeStyle;rounded=0;orthogonalLoop=1;jettySize=auto;html=1;exitX=1;exitY=0.5;exitDx=0;exitDy=0;entryX=0;entryY=0.5;entryDx=0;entryDy=0;endArrow=classic;endFill=1;fontStyle=1;fontSize=12;" parent="1" source="sMOfnV0AaLNDbWKCPL8H-10" target="sMOfnV0AaLNDbWKCPL8H-12" edge="1">
          <mxGeometry relative="1" as="geometry" />
        </mxCell>
        <mxCell id="sMOfnV0AaLNDbWKCPL8H-8" style="edgeStyle=orthogonalEdgeStyle;rounded=0;orthogonalLoop=1;jettySize=auto;html=1;exitX=1;exitY=0.5;exitDx=0;exitDy=0;endArrow=classic;endFill=1;fontStyle=1;fontSize=12;" parent="1" source="sMOfnV0AaLNDbWKCPL8H-10" target="sMOfnV0AaLNDbWKCPL8H-16" edge="1">
          <mxGeometry relative="1" as="geometry" />
        </mxCell>
        <mxCell id="sMOfnV0AaLNDbWKCPL8H-9" style="edgeStyle=orthogonalEdgeStyle;rounded=0;orthogonalLoop=1;jettySize=auto;html=1;exitX=0.5;exitY=1;exitDx=0;exitDy=0;entryX=0.5;entryY=0;entryDx=0;entryDy=0;endArrow=classic;endFill=1;fontStyle=1;fontSize=12;" parent="1" source="sMOfnV0AaLNDbWKCPL8H-10" target="sMOfnV0AaLNDbWKCPL8H-14" edge="1">
          <mxGeometry relative="1" as="geometry" />
        </mxCell>
        <mxCell id="sMOfnV0AaLNDbWKCPL8H-10" value="Spacy NLP&lt;br style=&quot;font-size: 12px;&quot;&gt;Pipeline" style="shape=process;whiteSpace=wrap;html=1;backgroundOutline=1;fontStyle=1;fontSize=12;" parent="1" vertex="1">
          <mxGeometry x="-1520" y="250" width="120" height="60" as="geometry" />
        </mxCell>
        <mxCell id="sMOfnV0AaLNDbWKCPL8H-11" style="edgeStyle=orthogonalEdgeStyle;rounded=0;orthogonalLoop=1;jettySize=auto;html=1;exitX=1;exitY=0.5;exitDx=0;exitDy=0;endArrow=classic;endFill=1;fontStyle=1;fontSize=12;" parent="1" source="sMOfnV0AaLNDbWKCPL8H-12" target="sMOfnV0AaLNDbWKCPL8H-18" edge="1">
          <mxGeometry relative="1" as="geometry" />
        </mxCell>
        <mxCell id="sMOfnV0AaLNDbWKCPL8H-12" value="TextRank Keyword Extraction Algorithm&lt;br style=&quot;font-size: 12px;&quot;&gt;with/without Verb" style="shape=process;whiteSpace=wrap;html=1;backgroundOutline=1;fontStyle=1;fontSize=12;" parent="1" vertex="1">
          <mxGeometry x="-1350" y="210" width="140" height="60" as="geometry" />
        </mxCell>
        <mxCell id="sMOfnV0AaLNDbWKCPL8H-13" style="edgeStyle=orthogonalEdgeStyle;rounded=0;orthogonalLoop=1;jettySize=auto;html=1;exitX=1;exitY=0.5;exitDx=0;exitDy=0;entryX=0.5;entryY=1;entryDx=0;entryDy=0;endArrow=classic;endFill=1;fontStyle=1;fontSize=12;" parent="1" source="sMOfnV0AaLNDbWKCPL8H-14" target="sMOfnV0AaLNDbWKCPL8H-22" edge="1">
          <mxGeometry relative="1" as="geometry" />
        </mxCell>
        <mxCell id="sMOfnV0AaLNDbWKCPL8H-14" value="POS, DEP, &lt;br style=&quot;font-size: 12px;&quot;&gt;Noun Chunks&lt;br style=&quot;font-size: 12px;&quot;&gt;Extraction" style="shape=step;perimeter=stepPerimeter;whiteSpace=wrap;html=1;fixedSize=1;fontStyle=1;fontSize=12;" parent="1" vertex="1">
          <mxGeometry x="-1520" y="370" width="120" height="60" as="geometry" />
        </mxCell>
        <mxCell id="sMOfnV0AaLNDbWKCPL8H-15" style="edgeStyle=orthogonalEdgeStyle;rounded=0;orthogonalLoop=1;jettySize=auto;html=1;exitX=1;exitY=0.5;exitDx=0;exitDy=0;entryX=0;entryY=0.5;entryDx=0;entryDy=0;endArrow=classic;endFill=1;fontStyle=1;fontSize=12;" parent="1" source="sMOfnV0AaLNDbWKCPL8H-16" target="sMOfnV0AaLNDbWKCPL8H-18" edge="1">
          <mxGeometry relative="1" as="geometry" />
        </mxCell>
        <mxCell id="sMOfnV0AaLNDbWKCPL8H-16" value="&lt;span style=&quot;font-size: 12px;&quot;&gt;SGRank Keyword Extraction Algorithm&lt;/span&gt;&lt;br style=&quot;font-size: 12px;&quot;&gt;&lt;span style=&quot;font-size: 12px;&quot;&gt;with/without Verb&lt;/span&gt;" style="shape=process;whiteSpace=wrap;html=1;backgroundOutline=1;fontStyle=1;fontSize=12;" parent="1" vertex="1">
          <mxGeometry x="-1350" y="300" width="140" height="60" as="geometry" />
        </mxCell>
        <mxCell id="sMOfnV0AaLNDbWKCPL8H-17" style="edgeStyle=orthogonalEdgeStyle;rounded=0;orthogonalLoop=1;jettySize=auto;html=1;exitX=1;exitY=0.5;exitDx=0;exitDy=0;entryX=0;entryY=0.5;entryDx=0;entryDy=0;endArrow=classic;endFill=1;fontStyle=1;fontSize=12;" parent="1" source="sMOfnV0AaLNDbWKCPL8H-18" target="sMOfnV0AaLNDbWKCPL8H-21" edge="1">
          <mxGeometry relative="1" as="geometry" />
        </mxCell>
        <mxCell id="sMOfnV0AaLNDbWKCPL8H-18" value="Heuristics to select good keywords from scores" style="whiteSpace=wrap;html=1;fontStyle=1;fontSize=12;" parent="1" vertex="1">
          <mxGeometry x="-1170" y="260" width="90" height="60" as="geometry" />
        </mxCell>
        <mxCell id="sMOfnV0AaLNDbWKCPL8H-19" style="edgeStyle=orthogonalEdgeStyle;rounded=0;orthogonalLoop=1;jettySize=auto;html=1;exitX=1;exitY=0.5;exitDx=0;exitDy=0;entryX=0;entryY=0.5;entryDx=0;entryDy=0;endArrow=classic;endFill=1;fontStyle=1;fontSize=12;" parent="1" source="sMOfnV0AaLNDbWKCPL8H-21" target="sMOfnV0AaLNDbWKCPL8H-22" edge="1">
          <mxGeometry relative="1" as="geometry" />
        </mxCell>
        <mxCell id="sMOfnV0AaLNDbWKCPL8H-20" value="No" style="edgeLabel;html=1;align=center;verticalAlign=middle;resizable=0;points=[];fontStyle=1;fontSize=12;" parent="sMOfnV0AaLNDbWKCPL8H-19" vertex="1" connectable="0">
          <mxGeometry relative="1" as="geometry">
            <mxPoint x="-5" as="offset" />
          </mxGeometry>
        </mxCell>
        <mxCell id="sMOfnV0AaLNDbWKCPL8H-21" value="Is &lt;br&gt;keyword&lt;br style=&quot;font-size: 12px;&quot;&gt;ngram &amp;gt; 10&lt;br&gt;?" style="rhombus;whiteSpace=wrap;html=1;fontStyle=1;fontSize=12;" parent="1" vertex="1">
          <mxGeometry x="-1050" y="245" width="100" height="90" as="geometry" />
        </mxCell>
        <mxCell id="sMOfnV0AaLNDbWKCPL8H-22" value="Concat" style="shape=process;whiteSpace=wrap;html=1;backgroundOutline=1;fontStyle=1;fontSize=12;" parent="1" vertex="1">
          <mxGeometry x="-900" y="260" width="120" height="60" as="geometry" />
        </mxCell>
        <mxCell id="sMOfnV0AaLNDbWKCPL8H-29" style="edgeStyle=orthogonalEdgeStyle;rounded=0;orthogonalLoop=1;jettySize=auto;html=1;exitX=1;exitY=0.5;exitDx=0;exitDy=0;entryX=0.5;entryY=0;entryDx=0;entryDy=0;fontSize=25;fontStyle=1" parent="1" source="sMOfnV0AaLNDbWKCPL8H-26" target="sMOfnV0AaLNDbWKCPL8H-22" edge="1">
          <mxGeometry relative="1" as="geometry" />
        </mxCell>
        <mxCell id="sMOfnV0AaLNDbWKCPL8H-26" value="&lt;span&gt;score &amp;gt; 0.3 = positive&lt;br&gt;score &amp;lt; 0 = negative&lt;br&gt;0.3 &amp;lt;= score &amp;lt;= 0 = neutral&lt;/span&gt;" style="whiteSpace=wrap;html=1;fontStyle=1" parent="1" vertex="1">
          <mxGeometry x="-1082.5" y="140" width="160" height="60" as="geometry" />
        </mxCell>
        <mxCell id="rkGWQ5_aOtCZ8O-Fw9fh-5" style="edgeStyle=orthogonalEdgeStyle;rounded=0;orthogonalLoop=1;jettySize=auto;html=1;exitX=0.5;exitY=1;exitDx=0;exitDy=0;fontSize=14;entryX=1;entryY=0.5;entryDx=0;entryDy=0;" edge="1" parent="1" source="sMOfnV0AaLNDbWKCPL8H-49" target="rkGWQ5_aOtCZ8O-Fw9fh-2">
          <mxGeometry relative="1" as="geometry">
            <mxPoint x="-310" y="80" as="targetPoint" />
            <Array as="points">
              <mxPoint x="-1230" y="560" />
              <mxPoint x="-290" y="560" />
              <mxPoint x="-290" y="-60" />
            </Array>
          </mxGeometry>
        </mxCell>
        <mxCell id="sMOfnV0AaLNDbWKCPL8H-49" value="&lt;span style=&quot;&quot;&gt;TF-IDF/BM25 at&lt;/span&gt;&lt;br style=&quot;&quot;&gt;&lt;span style=&quot;&quot;&gt;Topic and Brand Level&lt;/span&gt;" style="shape=process;whiteSpace=wrap;html=1;backgroundOutline=1;fontSize=12;fontStyle=1" parent="1" vertex="1">
          <mxGeometry x="-1290" y="470" width="120" height="60" as="geometry" />
        </mxCell>
        <mxCell id="sMOfnV0AaLNDbWKCPL8H-56" style="edgeStyle=orthogonalEdgeStyle;rounded=0;orthogonalLoop=1;jettySize=auto;html=1;exitX=1;exitY=0.5;exitDx=0;exitDy=0;exitPerimeter=0;entryX=0;entryY=0.5;entryDx=0;entryDy=0;fontSize=12;fontStyle=1" parent="1" source="sMOfnV0AaLNDbWKCPL8H-50" target="sMOfnV0AaLNDbWKCPL8H-49" edge="1">
          <mxGeometry relative="1" as="geometry" />
        </mxCell>
        <mxCell id="sMOfnV0AaLNDbWKCPL8H-50" value="Merged all&lt;br&gt;Paragraphs&lt;br&gt;per topic per brand" style="strokeWidth=2;html=1;shape=mxgraph.flowchart.multi-document;whiteSpace=wrap;fontSize=12;fontStyle=1" parent="1" vertex="1">
          <mxGeometry x="-1686" y="470" width="140" height="60" as="geometry" />
        </mxCell>
        <mxCell id="rkGWQ5_aOtCZ8O-Fw9fh-3" style="edgeStyle=orthogonalEdgeStyle;rounded=0;orthogonalLoop=1;jettySize=auto;html=1;exitX=0.5;exitY=0;exitDx=0;exitDy=0;entryX=0.5;entryY=1;entryDx=0;entryDy=0;fontSize=14;" edge="1" parent="1" source="sMOfnV0AaLNDbWKCPL8H-52" target="rkGWQ5_aOtCZ8O-Fw9fh-2">
          <mxGeometry relative="1" as="geometry">
            <Array as="points">
              <mxPoint x="-1235" y="10" />
              <mxPoint x="-580" y="10" />
            </Array>
          </mxGeometry>
        </mxCell>
        <mxCell id="sMOfnV0AaLNDbWKCPL8H-52" value="TF-IDF/BM25 at&lt;br&gt;Topic Level" style="shape=process;whiteSpace=wrap;html=1;backgroundOutline=1;fontSize=12;fontStyle=1" parent="1" vertex="1">
          <mxGeometry x="-1295" y="50" width="120" height="60" as="geometry" />
        </mxCell>
        <mxCell id="sMOfnV0AaLNDbWKCPL8H-59" style="edgeStyle=orthogonalEdgeStyle;rounded=0;orthogonalLoop=1;jettySize=auto;html=1;exitX=1;exitY=0.5;exitDx=0;exitDy=0;exitPerimeter=0;entryX=0;entryY=0.5;entryDx=0;entryDy=0;fontSize=24;fontStyle=1" parent="1" source="sMOfnV0AaLNDbWKCPL8H-53" target="sMOfnV0AaLNDbWKCPL8H-52" edge="1">
          <mxGeometry relative="1" as="geometry" />
        </mxCell>
        <mxCell id="sMOfnV0AaLNDbWKCPL8H-53" value="&lt;span style=&quot;&quot;&gt;Merged all &lt;br&gt;Paragraphs&lt;/span&gt;&lt;br style=&quot;&quot;&gt;&lt;span style=&quot;&quot;&gt;per topic&amp;nbsp;&lt;/span&gt;" style="strokeWidth=2;html=1;shape=mxgraph.flowchart.multi-document;whiteSpace=wrap;fontSize=12;fontStyle=1" parent="1" vertex="1">
          <mxGeometry x="-1668" y="50" width="104" height="60" as="geometry" />
        </mxCell>
        <mxCell id="sMOfnV0AaLNDbWKCPL8H-57" value="Keyword Extraction" style="text;html=1;strokeColor=#6c8ebf;fillColor=#dae8fc;align=center;verticalAlign=middle;whiteSpace=wrap;rounded=0;fontSize=24;gradientColor=#7ea6e0;fontStyle=1" parent="1" vertex="1">
          <mxGeometry x="-1350" y="130" width="230" height="30" as="geometry" />
        </mxCell>
        <mxCell id="sMOfnV0AaLNDbWKCPL8H-83" value="" style="rounded=1;whiteSpace=wrap;html=1;fontSize=12;fillColor=#f5f5f5;strokeColor=#666666;fontColor=#333333;" parent="1" vertex="1">
          <mxGeometry x="-725" y="20" width="290" height="530" as="geometry" />
        </mxCell>
        <mxCell id="sMOfnV0AaLNDbWKCPL8H-80" style="edgeStyle=orthogonalEdgeStyle;rounded=0;orthogonalLoop=1;jettySize=auto;html=1;exitX=1;exitY=0.5;exitDx=0;exitDy=0;entryX=0;entryY=0.5;entryDx=0;entryDy=0;fontSize=12;" parent="1" source="sMOfnV0AaLNDbWKCPL8H-61" target="sMOfnV0AaLNDbWKCPL8H-75" edge="1">
          <mxGeometry relative="1" as="geometry" />
        </mxCell>
        <mxCell id="sMOfnV0AaLNDbWKCPL8H-78" style="edgeStyle=orthogonalEdgeStyle;rounded=0;orthogonalLoop=1;jettySize=auto;html=1;exitX=1;exitY=0.5;exitDx=0;exitDy=0;entryX=0;entryY=0.5;entryDx=0;entryDy=0;fontSize=12;" parent="1" source="sMOfnV0AaLNDbWKCPL8H-64" target="sMOfnV0AaLNDbWKCPL8H-75" edge="1">
          <mxGeometry relative="1" as="geometry" />
        </mxCell>
        <mxCell id="sMOfnV0AaLNDbWKCPL8H-76" style="edgeStyle=orthogonalEdgeStyle;rounded=0;orthogonalLoop=1;jettySize=auto;html=1;exitX=1;exitY=0.5;exitDx=0;exitDy=0;entryX=0;entryY=0.5;entryDx=0;entryDy=0;fontSize=12;" parent="1" source="sMOfnV0AaLNDbWKCPL8H-65" target="sMOfnV0AaLNDbWKCPL8H-75" edge="1">
          <mxGeometry relative="1" as="geometry" />
        </mxCell>
        <mxCell id="sMOfnV0AaLNDbWKCPL8H-79" style="edgeStyle=orthogonalEdgeStyle;rounded=0;orthogonalLoop=1;jettySize=auto;html=1;exitX=1;exitY=0.5;exitDx=0;exitDy=0;entryX=0;entryY=0.5;entryDx=0;entryDy=0;fontSize=12;" parent="1" source="sMOfnV0AaLNDbWKCPL8H-66" target="sMOfnV0AaLNDbWKCPL8H-75" edge="1">
          <mxGeometry relative="1" as="geometry" />
        </mxCell>
        <mxCell id="sMOfnV0AaLNDbWKCPL8H-75" value="&lt;b&gt;Concat&lt;/b&gt;" style="shape=process;whiteSpace=wrap;html=1;backgroundOutline=1;fontSize=12;" parent="1" vertex="1">
          <mxGeometry x="-420" y="260" width="120" height="60" as="geometry" />
        </mxCell>
        <mxCell id="sMOfnV0AaLNDbWKCPL8H-37" style="edgeStyle=orthogonalEdgeStyle;rounded=0;orthogonalLoop=1;jettySize=auto;html=1;exitX=1;exitY=0.5;exitDx=0;exitDy=0;entryX=0;entryY=0.5;entryDx=0;entryDy=0;fontSize=25;fontStyle=1" parent="1" target="sMOfnV0AaLNDbWKCPL8H-61" edge="1">
          <mxGeometry relative="1" as="geometry">
            <mxPoint x="-700" y="290" as="sourcePoint" />
            <mxPoint x="-640" y="229.97000000000003" as="targetPoint" />
          </mxGeometry>
        </mxCell>
        <mxCell id="sMOfnV0AaLNDbWKCPL8H-67" style="edgeStyle=orthogonalEdgeStyle;rounded=0;orthogonalLoop=1;jettySize=auto;html=1;exitX=1;exitY=0.5;exitDx=0;exitDy=0;entryX=0;entryY=0.5;entryDx=0;entryDy=0;fontSize=24;fontStyle=1" parent="1" target="sMOfnV0AaLNDbWKCPL8H-65" edge="1">
          <mxGeometry relative="1" as="geometry">
            <mxPoint x="-700" y="290" as="sourcePoint" />
          </mxGeometry>
        </mxCell>
        <mxCell id="sMOfnV0AaLNDbWKCPL8H-70" style="edgeStyle=orthogonalEdgeStyle;rounded=0;orthogonalLoop=1;jettySize=auto;html=1;exitX=1;exitY=0.5;exitDx=0;exitDy=0;entryX=0;entryY=0.5;entryDx=0;entryDy=0;fontSize=24;fontStyle=1" parent="1" target="sMOfnV0AaLNDbWKCPL8H-64" edge="1">
          <mxGeometry relative="1" as="geometry">
            <mxPoint x="-710" y="290" as="sourcePoint" />
            <Array as="points">
              <mxPoint x="-670" y="290" />
              <mxPoint x="-670" y="240" />
            </Array>
          </mxGeometry>
        </mxCell>
        <mxCell id="sMOfnV0AaLNDbWKCPL8H-61" value="Keyword Document Frequency per Topic per Brand" style="shape=process;whiteSpace=wrap;html=1;backgroundOutline=1;fontSize=12;fontStyle=1" parent="1" vertex="1">
          <mxGeometry x="-640" y="400" width="120" height="60" as="geometry" />
        </mxCell>
        <mxCell id="sMOfnV0AaLNDbWKCPL8H-64" value="Keyword Document Frequency per Topic Sentiment" style="shape=process;whiteSpace=wrap;html=1;backgroundOutline=1;fontSize=12;fontStyle=1" parent="1" vertex="1">
          <mxGeometry x="-640" y="210" width="120" height="60" as="geometry" />
        </mxCell>
        <mxCell id="sMOfnV0AaLNDbWKCPL8H-65" value="Keyword Document Frequency per Topic" style="shape=process;whiteSpace=wrap;html=1;backgroundOutline=1;fontSize=12;verticalAlign=middle;horizontal=1;fontStyle=1" parent="1" vertex="1">
          <mxGeometry x="-640" y="120" width="120" height="60" as="geometry" />
        </mxCell>
        <mxCell id="sMOfnV0AaLNDbWKCPL8H-66" value="Keyword Document Frequency per Topic per Brand per sentiment" style="shape=process;whiteSpace=wrap;html=1;backgroundOutline=1;fontSize=12;fontStyle=1" parent="1" vertex="1">
          <mxGeometry x="-640" y="300" width="120" height="70" as="geometry" />
        </mxCell>
        <mxCell id="sMOfnV0AaLNDbWKCPL8H-69" style="edgeStyle=orthogonalEdgeStyle;rounded=0;orthogonalLoop=1;jettySize=auto;html=1;exitX=0.5;exitY=0;exitDx=0;exitDy=0;entryX=1;entryY=0.5;entryDx=0;entryDy=0;fontSize=24;fontStyle=1;dashed=1;dashPattern=1 1;strokeWidth=2;" parent="1" source="sMOfnV0AaLNDbWKCPL8H-65" target="sMOfnV0AaLNDbWKCPL8H-52" edge="1">
          <mxGeometry relative="1" as="geometry" />
        </mxCell>
        <mxCell id="sMOfnV0AaLNDbWKCPL8H-73" value="&lt;b&gt;Topic Level&lt;/b&gt;" style="edgeLabel;html=1;align=center;verticalAlign=middle;resizable=0;points=[];fontSize=12;" parent="sMOfnV0AaLNDbWKCPL8H-69" vertex="1" connectable="0">
          <mxGeometry x="0.2966" y="-1" relative="1" as="geometry">
            <mxPoint x="16" y="1" as="offset" />
          </mxGeometry>
        </mxCell>
        <mxCell id="sMOfnV0AaLNDbWKCPL8H-68" style="edgeStyle=orthogonalEdgeStyle;rounded=0;orthogonalLoop=1;jettySize=auto;html=1;exitX=0.5;exitY=1;exitDx=0;exitDy=0;entryX=1;entryY=0.5;entryDx=0;entryDy=0;fontSize=24;fontStyle=1;dashed=1;dashPattern=1 1;strokeWidth=2;" parent="1" source="sMOfnV0AaLNDbWKCPL8H-61" target="sMOfnV0AaLNDbWKCPL8H-49" edge="1">
          <mxGeometry relative="1" as="geometry" />
        </mxCell>
        <mxCell id="sMOfnV0AaLNDbWKCPL8H-72" value="&lt;font style=&quot;font-size: 12px;&quot;&gt;Topic Brand Level&lt;/font&gt;" style="edgeLabel;html=1;align=center;verticalAlign=middle;resizable=0;points=[];fontSize=24;fontStyle=1" parent="sMOfnV0AaLNDbWKCPL8H-68" vertex="1" connectable="0">
          <mxGeometry x="0.1529" y="-2" relative="1" as="geometry">
            <mxPoint x="-32" y="-3" as="offset" />
          </mxGeometry>
        </mxCell>
        <mxCell id="sMOfnV0AaLNDbWKCPL8H-71" style="edgeStyle=orthogonalEdgeStyle;rounded=0;orthogonalLoop=1;jettySize=auto;html=1;exitX=1;exitY=0.5;exitDx=0;exitDy=0;entryX=0;entryY=0.5;entryDx=0;entryDy=0;fontSize=24;fontStyle=1" parent="1" source="sMOfnV0AaLNDbWKCPL8H-22" target="sMOfnV0AaLNDbWKCPL8H-66" edge="1">
          <mxGeometry relative="1" as="geometry">
            <mxPoint x="-710" y="290" as="sourcePoint" />
            <Array as="points">
              <mxPoint x="-670" y="290" />
              <mxPoint x="-670" y="335" />
            </Array>
          </mxGeometry>
        </mxCell>
        <mxCell id="sMOfnV0AaLNDbWKCPL8H-82" style="edgeStyle=orthogonalEdgeStyle;rounded=0;orthogonalLoop=1;jettySize=auto;html=1;exitX=0.5;exitY=1;exitDx=0;exitDy=0;entryX=0.5;entryY=1;entryDx=0;entryDy=0;fontSize=12;" parent="1" source="sMOfnV0AaLNDbWKCPL8H-49" target="sMOfnV0AaLNDbWKCPL8H-75" edge="1">
          <mxGeometry relative="1" as="geometry">
            <Array as="points">
              <mxPoint x="-1230" y="560" />
              <mxPoint x="-360" y="560" />
            </Array>
          </mxGeometry>
        </mxCell>
        <mxCell id="sMOfnV0AaLNDbWKCPL8H-81" style="edgeStyle=orthogonalEdgeStyle;rounded=0;orthogonalLoop=1;jettySize=auto;html=1;exitX=0.5;exitY=0;exitDx=0;exitDy=0;entryX=0.5;entryY=0;entryDx=0;entryDy=0;fontSize=12;" parent="1" source="sMOfnV0AaLNDbWKCPL8H-52" target="sMOfnV0AaLNDbWKCPL8H-75" edge="1">
          <mxGeometry relative="1" as="geometry">
            <Array as="points">
              <mxPoint x="-1235" y="10" />
              <mxPoint x="-360" y="10" />
            </Array>
          </mxGeometry>
        </mxCell>
        <mxCell id="sMOfnV0AaLNDbWKCPL8H-85" value="Frequency Based Summarisation" style="text;html=1;strokeColor=#6c8ebf;fillColor=#dae8fc;align=center;verticalAlign=middle;whiteSpace=wrap;rounded=0;fontSize=20;fontStyle=1;gradientColor=#7ea6e0;" parent="1" vertex="1">
          <mxGeometry x="-691.87" y="20" width="223.75" height="50" as="geometry" />
        </mxCell>
        <mxCell id="rkGWQ5_aOtCZ8O-Fw9fh-1" value="&lt;b&gt;&lt;font style=&quot;font-size: 14px;&quot;&gt;Pre-Compute&lt;/font&gt;&lt;/b&gt;" style="shape=process;whiteSpace=wrap;html=1;backgroundOutline=1;" vertex="1" parent="1">
          <mxGeometry x="-1280" y="-90" width="120" height="60" as="geometry" />
        </mxCell>
        <mxCell id="rkGWQ5_aOtCZ8O-Fw9fh-2" value="&lt;b style=&quot;font-size: 14px;&quot;&gt;Pre-Compute or&lt;br&gt;On the Fly&lt;/b&gt;" style="shape=process;whiteSpace=wrap;html=1;backgroundOutline=1;" vertex="1" parent="1">
          <mxGeometry x="-640" y="-90" width="120" height="60" as="geometry" />
        </mxCell>
      </root>
    </mxGraphModel>
  </diagram>
</mxfile>
